<svg xmlns="http://www.w3.org/2000/svg" viewBox="0 0 1280 720" width="1280" height="720">
  <defs>
    <linearGradient id="sky" x1="0" y1="0" x2="0" y2="1">
      <stop offset="0" stop-color="#0b132b"/>
      <stop offset="0.55" stop-color="#1c1030"/>
      <stop offset="1" stop-color="#33122a"/>
    </linearGradient>
    <radialGradient id="glow" cx="0.5" cy="0.42" r="0.62">
      <stop offset="0" stop-color="#ffd34d" stop-opacity="0.6"/>
      <stop offset="0.35" stop-color="#d9262a" stop-opacity="0.3"/>
      <stop offset="1" stop-color="#0b132b" stop-opacity="0"/>
    </radialGradient>
    <linearGradient id="skyline" x1="0" y1="0" x2="0" y2="1">
      <stop offset="0" stop-color="#0d0a1f"/>
      <stop offset="1" stop-color="#050312"/>
    </linearGradient>
  </defs>
  <rect width="1280" height="720" fill="url(#sky)"/>
  <rect width="1280" height="720" fill="url(#glow)"/>
  <g fill="#ffd34d" opacity="0.5">
    <circle cx="120" cy="150" r="3"/>
    <circle cx="1150" cy="100" r="2.5"/>
    <circle cx="980" cy="260" r="3.5"/>
    <circle cx="260" cy="320" r="2.5"/>
    <circle cx="640" cy="520" r="3"/>
    <circle cx="80" cy="420" r="2"/>
    <circle cx="1220" cy="380" r="2"/>
    <circle cx="500" cy="90" r="2"/>
    <circle cx="760" cy="150" r="2.5"/>
  </g>
  <g fill="url(#skyline)" opacity="0.9">
    <rect x="0" y="540" width="110" height="180"/>
    <rect x="118" y="570" width="90" height="150"/>
    <rect x="214" y="520" width="120" height="200"/>
    <rect x="340" y="560" width="80" height="160"/>
    <rect x="426" y="530" width="140" height="190"/>
    <rect x="572" y="570" width="100" height="150"/>
    <rect x="678" y="520" width="110" height="200"/>
    <rect x="794" y="560" width="130" height="160"/>
    <rect x="930" y="530" width="90" height="190"/>
    <rect x="1026" y="570" width="120" height="150"/>
    <rect x="1152" y="540" width="128" height="180"/>
  </g>
  <g fill="#f2b705" opacity="0.55">
    <rect x="40" y="556" width="8" height="8"/>
    <rect x="140" y="586" width="8" height="8"/>
    <rect x="240" y="536" width="8" height="8"/>
    <rect x="300" y="560" width="8" height="8"/>
    <rect x="360" y="586" width="8" height="8"/>
    <rect x="456" y="546" width="8" height="8"/>
    <rect x="540" y="570" width="8" height="8"/>
    <rect x="600" y="586" width="8" height="8"/>
    <rect x="704" y="536" width="8" height="8"/>
    <rect x="770" y="558" width="8" height="8"/>
    <rect x="820" y="576" width="8" height="8"/>
    <rect x="952" y="546" width="8" height="8"/>
    <rect x="1048" y="586" width="8" height="8"/>
    <rect x="1100" y="560" width="8" height="8"/>
    <rect x="1200" y="556" width="8" height="8"/>
  </g>
  <rect y="640" width="1280" height="80" fill="#050312"/>
  <rect y="636" width="1280" height="4" fill="#f2b705" opacity="0.7"/>
  <rect y="640" width="1280" height="2" fill="#ffd34d" opacity="0.4"/>
</svg>
