<svg xmlns="http://www.w3.org/2000/svg" viewBox="0 0 64 64" width="64" height="64">
  <defs>
    <linearGradient id="helmet" x1="0" y1="0" x2="0" y2="1">
      <stop offset="0" stop-color="#ffd34d"/>
      <stop offset="1" stop-color="#c98d00"/>
    </linearGradient>
    <linearGradient id="armor" x1="0" y1="0" x2="0" y2="1">
      <stop offset="0" stop-color="#e8403f"/>
      <stop offset="1" stop-color="#9c1418"/>
    </linearGradient>
    <linearGradient id="leg" x1="0" y1="0" x2="0" y2="1">
      <stop offset="0" stop-color="#c92026"/>
      <stop offset="1" stop-color="#8c1014"/>
    </linearGradient>
    <radialGradient id="coreGlow" cx="0.5" cy="0.5" r="0.5">
      <stop offset="0" stop-color="#c9f2ff" stop-opacity="0.9"/>
      <stop offset="0.5" stop-color="#4fd1ff" stop-opacity="0.45"/>
      <stop offset="1" stop-color="#4fd1ff" stop-opacity="0"/>
    </radialGradient>
  </defs>
  <g stroke="#1a1a1a" stroke-width="1.5">
    <circle cx="32" cy="37" r="11" fill="url(#coreGlow)"/>
    <rect x="11" y="6" width="42" height="9" rx="4" fill="url(#helmet)"/>
    <rect x="13" y="7" width="38" height="3" rx="1.5" fill="#ffe89c" opacity="0.9"/>
    <rect x="13" y="13" width="38" height="13" rx="3" fill="url(#armor)"/>
    <rect x="17" y="16" width="30" height="7" rx="3" fill="#0b132b"/>
    <rect x="20" y="18" width="24" height="2" fill="#4fd1ff"/>
    <rect x="14" y="27" width="36" height="21" rx="3" fill="url(#armor)"/>
    <rect x="18" y="27" width="28" height="4" rx="2" fill="#ff8a8a" opacity="0.55"/>
    <circle cx="32" cy="37" r="6.5" fill="#f2b705" stroke-width="2"/>
    <circle cx="32" cy="37" r="3.5" fill="#7ee8ff"/>
    <circle cx="32" cy="37" r="1.5" fill="#ffffff"/>
    <rect x="12" y="48" width="40" height="4" rx="2" fill="url(#helmet)"/>
    <rect x="16" y="52" width="13" height="10" rx="2" fill="url(#leg)"/>
    <rect x="35" y="52" width="13" height="10" rx="2" fill="url(#leg)"/>
    <rect x="14" y="60" width="17" height="4" rx="2" fill="url(#helmet)"/>
    <rect x="33" y="60" width="17" height="4" rx="2" fill="url(#helmet)"/>
  </g>
</svg>
